<mxfile host="app.diagrams.net" agent="Mozilla/5.0 (Macintosh; Intel Mac OS X 10_15_7) AppleWebKit/537.36 (KHTML, like Gecko) Chrome/137.0.0.0 Safari/537.36" version="27.1.5" pages="9">
  <diagram name="01 VLANs" id="sQM2SUMhDlm0rfmh3iS2">
    <mxGraphModel dx="351" dy="272" grid="1" gridSize="10" guides="0" tooltips="1" connect="1" arrows="0" fold="1" page="0" pageScale="1" pageWidth="1200" pageHeight="1920" background="none" math="0" shadow="0">
      <root>
        <mxCell id="0" />
        <mxCell id="1" parent="0" />
        <mxCell id="OVcNr4aTETxYAVmZ-GHo-78" value="" style="html=1;overflow=block;blockSpacing=1;whiteSpace=wrap;shape=mxgraph.networks.laptop;fillColor=#495057;strokeColor=#ffffff;labelPosition=center;verticalLabelPosition=bottom;align=center;verticalAlign=top;fontSize=13;spacing=0;strokeOpacity=100;fillOpacity=100;rounded=1;absoluteArcSize=1;arcSize=9;strokeWidth=6.8;lucidId=yo6l1XIqATij;shadow=1;" parent="1" vertex="1">
          <mxGeometry x="220" y="538.9999999999999" width="40" height="30.66" as="geometry" />
        </mxCell>
        <mxCell id="OVcNr4aTETxYAVmZ-GHo-83" value="" style="html=1;overflow=block;blockSpacing=1;whiteSpace=wrap;shape=mxgraph.networks.laptop;fillColor=#495057;strokeColor=#ffffff;labelPosition=center;verticalLabelPosition=bottom;align=center;verticalAlign=top;fontSize=13;spacing=0;strokeOpacity=100;fillOpacity=100;rounded=1;absoluteArcSize=1;arcSize=9;strokeWidth=6.8;lucidId=yo6l1XIqATij;shadow=1;" parent="1" vertex="1">
          <mxGeometry x="300" y="519.9999999999999" width="40" height="30.66" as="geometry" />
        </mxCell>
        <mxCell id="OVcNr4aTETxYAVmZ-GHo-75" value="" style="html=1;overflow=block;blockSpacing=1;whiteSpace=wrap;shape=mxgraph.networks.laptop;fillColor=#495057;strokeColor=#ffffff;labelPosition=center;verticalLabelPosition=bottom;align=center;verticalAlign=top;fontSize=13;spacing=0;strokeOpacity=100;fillOpacity=100;rounded=1;absoluteArcSize=1;arcSize=9;strokeWidth=6.8;lucidId=yo6l1XIqATij;shadow=1;" parent="1" vertex="1">
          <mxGeometry x="140" y="519.9999999999999" width="40" height="30.66" as="geometry" />
        </mxCell>
        <mxCell id="OVcNr4aTETxYAVmZ-GHo-39" value="" style="html=1;overflow=block;blockSpacing=1;whiteSpace=wrap;shape=image;fontSize=13;spacing=0;strokeColor=none;strokeOpacity=100;rounded=1;absoluteArcSize=1;arcSize=9;strokeWidth=0;image=https://images.lucid.app/images/aae0cd2c-8d88-48f1-8bd3-6e198f52bb45/content;imageAspect=0;lucidId=o-yhy~S7X1uA;" parent="1" vertex="1">
          <mxGeometry x="200" y="240" width="80" height="80" as="geometry" />
        </mxCell>
        <mxCell id="OVcNr4aTETxYAVmZ-GHo-66" value="" style="group" parent="1" vertex="1" connectable="0">
          <mxGeometry x="200" y="360" width="80" height="80" as="geometry" />
        </mxCell>
        <mxCell id="OVcNr4aTETxYAVmZ-GHo-67" value="" style="html=1;overflow=block;blockSpacing=1;whiteSpace=wrap;fontSize=13;align=center;spacing=3.8;strokeColor=#495057;strokeOpacity=100;fillOpacity=100;rounded=1;absoluteArcSize=1;arcSize=1.5;fillColor=#D7E4D4;strokeWidth=1.5;lucidId=YF3lqTIRaQtV;container=0;points=[[0,0,0,0,0],[0,0.13,0,0,0],[0,0.25,0,0,0],[0,0.38,0,0,0],[0,0.5,0,0,0],[0,0.63,0,0,0],[0,0.75,0,0,0],[0,0.88,0,0,0],[0,1,0,0,0],[0.13,0,0,0,0],[0.13,1,0,0,0],[0.25,0,0,0,0],[0.25,1,0,0,0],[0.38,0,0,0,0],[0.38,1,0,0,0],[0.5,0,0,0,0],[0.5,1,0,0,0],[0.63,0,0,0,0],[0.63,1,0,0,0],[0.75,0,0,0,0],[0.75,1,0,0,0],[0.88,0,0,0,0],[0.88,1,0,0,0],[1,0,0,0,0],[1,0.13,0,0,0],[1,0.25,0,0,0],[1,0.38,0,0,0],[1,0.5,0,0,0],[1,0.63,0,0,0],[1,0.75,0,0,0],[1,0.88,0,0,0],[1,1,0,0,0]];shadow=1;" parent="OVcNr4aTETxYAVmZ-GHo-66" vertex="1">
          <mxGeometry width="80" height="80" as="geometry" />
        </mxCell>
        <mxCell id="OVcNr4aTETxYAVmZ-GHo-68" value="" style="html=1;jettySize=18;whiteSpace=wrap;fontSize=13;strokeColor=#495057;strokeOpacity=100;strokeWidth=1.5;rounded=0;arcSize=12;startArrow=none;startSize=6;endArrow=none;lucidId=GN3lW5_j-F.x;startFill=0;jumpSize=8;endSize=6;curved=1;shadow=1;" parent="OVcNr4aTETxYAVmZ-GHo-66" edge="1">
          <mxGeometry width="100" height="100" relative="1" as="geometry">
            <mxPoint x="15.99666666666667" y="48.66666666666663" as="sourcePoint" />
            <mxPoint x="31.99666666666667" y="59.33333333333337" as="targetPoint" />
          </mxGeometry>
        </mxCell>
        <mxCell id="OVcNr4aTETxYAVmZ-GHo-69" value="" style="html=1;jettySize=18;whiteSpace=wrap;fontSize=13;strokeColor=#495057;strokeOpacity=100;strokeWidth=1.5;rounded=0;arcSize=12;edgeStyle=orthogonalEdgeStyle;startArrow=none;startSize=6;endArrow=none;lucidId=GN3lW5_j-F.x;startFill=0;curved=0;jumpSize=8;endSize=6;shadow=1;" parent="OVcNr4aTETxYAVmZ-GHo-66" edge="1">
          <mxGeometry width="100" height="100" relative="1" as="geometry">
            <Array as="points" />
            <mxPoint x="15.99666666666667" y="48.66666666666663" as="sourcePoint" />
            <mxPoint x="65.99666666666667" y="48.66666666666663" as="targetPoint" />
          </mxGeometry>
        </mxCell>
        <mxCell id="OVcNr4aTETxYAVmZ-GHo-70" value="" style="html=1;jettySize=18;whiteSpace=wrap;fontSize=13;strokeColor=#495057;strokeOpacity=100;strokeWidth=1.5;rounded=1;arcSize=12;edgeStyle=orthogonalEdgeStyle;startArrow=none;endArrow=none;endSize=6;lucidId=GN3lE.~wW1MZ;startFill=0;curved=1;shadow=1;" parent="OVcNr4aTETxYAVmZ-GHo-66" edge="1">
          <mxGeometry width="100" height="100" relative="1" as="geometry">
            <Array as="points" />
            <mxPoint x="15.99666666666667" y="26.66666666666663" as="sourcePoint" />
            <mxPoint x="65.99666666666667" y="26.66666666666663" as="targetPoint" />
          </mxGeometry>
        </mxCell>
        <mxCell id="OVcNr4aTETxYAVmZ-GHo-71" value="" style="html=1;jettySize=18;whiteSpace=wrap;fontSize=13;strokeColor=#495057;strokeOpacity=100;strokeWidth=1.5;rounded=0;arcSize=12;startArrow=none;startSize=6;endArrow=none;lucidId=GN3lW5_j-F.x;startFill=0;jumpSize=8;endSize=6;curved=1;shadow=1;" parent="OVcNr4aTETxYAVmZ-GHo-66" edge="1">
          <mxGeometry width="100" height="100" relative="1" as="geometry">
            <mxPoint x="49.99666666666667" y="16" as="sourcePoint" />
            <mxPoint x="65.99666666666667" y="26.66666666666663" as="targetPoint" />
          </mxGeometry>
        </mxCell>
        <mxCell id="lNvyaSm_dHnEnZLDwgfB-11" value="" style="html=1;overflow=block;blockSpacing=1;whiteSpace=wrap;fontSize=13;spacing=3.8;strokeOpacity=100;fillOpacity=100;rounded=1;absoluteArcSize=1;arcSize=27;fillColor=#f1f3f5;strokeWidth=0.8;lucidId=MjipdOaS~~uc;opacity=50;" vertex="1" parent="OVcNr4aTETxYAVmZ-GHo-66">
          <mxGeometry x="-70" y="-20" width="80" height="40" as="geometry" />
        </mxCell>
        <mxCell id="lNvyaSm_dHnEnZLDwgfB-8" value="&lt;div style=&quot;line-height: 80%;&quot;&gt;&lt;font style=&quot;font-size: 10px; line-height: 80%;&quot; face=&quot;Tahoma&quot;&gt;sea-a1-asw1&lt;/font&gt;&lt;br style=&quot;font-size: 12px;&quot;&gt;&lt;div style=&quot;font-size: 12px; line-height: 80%;&quot;&gt;&lt;font face=&quot;Tahoma&quot;&gt;&lt;span style=&quot;font-size: 6px; line-height: 80%;&quot;&gt;Cisco IOL-L2&lt;/span&gt;&lt;/font&gt;&lt;/div&gt;&lt;div style=&quot;font-size: 12px; line-height: 80%;&quot;&gt;&lt;font style=&quot;font-size: 5px; line-height: 80%;&quot; face=&quot;Tahoma&quot;&gt;&lt;i&gt;172.20.25.2 | 10.1.99.10&lt;/i&gt;&lt;/font&gt;&lt;/div&gt;&lt;/div&gt;" style="html=1;overflow=block;blockSpacing=1;whiteSpace=wrap;fontSize=13;spacing=3.8;strokeOpacity=100;fillOpacity=0;rounded=1;absoluteArcSize=1;arcSize=27;fillColor=#000000;strokeWidth=0.8;lucidId=MjipdOaS~~uc;" vertex="1" parent="OVcNr4aTETxYAVmZ-GHo-66">
          <mxGeometry x="-70" y="-20" width="80" height="40" as="geometry" />
        </mxCell>
        <mxCell id="OVcNr4aTETxYAVmZ-GHo-74" value="" style="endArrow=oval;dashed=1;html=1;rounded=1;strokeWidth=1.5;strokeColor=#343a40;startArrow=oval;startFill=1;endFill=1;dashPattern=1 2;fontSize=13;startSize=2;endSize=2;edgeStyle=orthogonalEdgeStyle;labelBorderColor=none;textShadow=0;flowAnimation=0;align=center;verticalAlign=middle;arcSize=12;fontFamily=Helvetica;fontColor=default;labelBackgroundColor=default;" parent="1" edge="1">
          <mxGeometry width="50" height="50" relative="1" as="geometry">
            <mxPoint x="160" y="520" as="sourcePoint" />
            <mxPoint x="220" y="440" as="targetPoint" />
            <Array as="points">
              <mxPoint x="160" y="480" />
              <mxPoint x="220" y="480" />
            </Array>
          </mxGeometry>
        </mxCell>
        <mxCell id="OVcNr4aTETxYAVmZ-GHo-77" value="" style="endArrow=oval;dashed=1;html=1;rounded=1;strokeWidth=1.5;strokeColor=#343a40;startArrow=oval;startFill=1;endFill=1;dashPattern=1 2;fontSize=13;startSize=2;endSize=2;align=center;verticalAlign=middle;arcSize=12;fontFamily=Helvetica;fontColor=default;labelBackgroundColor=default;exitX=0.5;exitY=0;exitDx=0;exitDy=0;exitPerimeter=0;" parent="1" edge="1" source="OVcNr4aTETxYAVmZ-GHo-78">
          <mxGeometry width="50" height="50" relative="1" as="geometry">
            <mxPoint x="240" y="538" as="sourcePoint" />
            <mxPoint x="240" y="440" as="targetPoint" />
          </mxGeometry>
        </mxCell>
        <mxCell id="OVcNr4aTETxYAVmZ-GHo-82" value="" style="endArrow=oval;dashed=1;html=1;rounded=1;strokeWidth=1.5;strokeColor=#343a40;startArrow=oval;startFill=1;endFill=1;dashPattern=1 2;fontSize=13;startSize=2;endSize=2;edgeStyle=elbowEdgeStyle;elbow=vertical;align=center;verticalAlign=middle;arcSize=12;fontFamily=Helvetica;fontColor=default;labelBackgroundColor=default;" parent="1" edge="1">
          <mxGeometry width="50" height="50" relative="1" as="geometry">
            <mxPoint x="320" y="520" as="sourcePoint" />
            <mxPoint x="260" y="440" as="targetPoint" />
            <Array as="points">
              <mxPoint x="280" y="480" />
            </Array>
          </mxGeometry>
        </mxCell>
        <mxCell id="OVcNr4aTETxYAVmZ-GHo-86" value="Bob" style="html=1;overflow=block;blockSpacing=1;whiteSpace=wrap;fontSize=6.7;fontColor=#343a40;spacing=0;strokeColor=none;strokeOpacity=100;fillOpacity=100;rounded=1;absoluteArcSize=1;arcSize=9;fillColor=none;strokeWidth=0.8;lucidId=1ZfhqeKOL2qd;" parent="1" vertex="1">
          <mxGeometry x="140" y="550" width="40" height="20" as="geometry" />
        </mxCell>
        <mxCell id="OVcNr4aTETxYAVmZ-GHo-87" value="172.16.25.3&#xa;10.1.10.10" style="html=1;overflow=block;blockSpacing=1;whiteSpace=wrap;fontSize=5;fontColor=#343a40;fontStyle=2;spacing=0;strokeColor=none;strokeOpacity=100;fillOpacity=100;rounded=1;absoluteArcSize=1;arcSize=9;shadow=1;fillColor=none;strokeWidth=0;lucidId=FK7hLZ65RKCL;" parent="1" vertex="1">
          <mxGeometry x="140" y="560" width="40" height="20" as="geometry" />
        </mxCell>
        <mxCell id="OVcNr4aTETxYAVmZ-GHo-88" value="Alice" style="html=1;overflow=block;blockSpacing=1;whiteSpace=wrap;fontSize=6.7;fontColor=#343a40;spacing=0;strokeColor=none;strokeOpacity=100;fillOpacity=100;rounded=1;absoluteArcSize=1;arcSize=9;fillColor=none;strokeWidth=0.8;lucidId=q0fhO7~7p_t2;" parent="1" vertex="1">
          <mxGeometry x="210" y="570" width="60" height="20" as="geometry" />
        </mxCell>
        <mxCell id="OVcNr4aTETxYAVmZ-GHo-89" value="172.16.25.5&#xa;10.1.20.10" style="html=1;overflow=block;blockSpacing=1;whiteSpace=wrap;fontSize=5;fontColor=#343a40;fontStyle=2;spacing=0;strokeColor=none;strokeOpacity=100;fillOpacity=100;rounded=1;absoluteArcSize=1;arcSize=9;shadow=1;fillColor=none;strokeWidth=0;lucidId=PK7hj8zh.Y22;" parent="1" vertex="1">
          <mxGeometry x="210" y="580" width="60" height="20" as="geometry" />
        </mxCell>
        <mxCell id="OVcNr4aTETxYAVmZ-GHo-90" value="Linda" style="html=1;overflow=block;blockSpacing=1;whiteSpace=wrap;fontSize=6.7;fontColor=#343a40;spacing=0;strokeColor=none;strokeOpacity=100;fillOpacity=100;rounded=1;absoluteArcSize=1;arcSize=9;fillColor=none;strokeWidth=0.8;lucidId=n_xh-cI0H3DA;" parent="1" vertex="1">
          <mxGeometry x="290" y="550" width="60" height="20" as="geometry" />
        </mxCell>
        <mxCell id="OVcNr4aTETxYAVmZ-GHo-91" value="172.16.25.4&#xa;10.1.10.20" style="html=1;overflow=block;blockSpacing=1;whiteSpace=wrap;fontSize=5;fontColor=#343a40;fontStyle=2;spacing=0;strokeColor=none;strokeOpacity=100;fillOpacity=100;rounded=1;absoluteArcSize=1;arcSize=9;shadow=1;fillColor=none;strokeWidth=0;lucidId=KK7hODL~PdsT;" parent="1" vertex="1">
          <mxGeometry x="290" y="560" width="60" height="20" as="geometry" />
        </mxCell>
        <mxCell id="lNvyaSm_dHnEnZLDwgfB-1" value="Lab 1 - VLANs" style="text;strokeColor=none;fillColor=none;html=1;align=center;verticalAlign=middle;whiteSpace=wrap;rounded=0;fontSize=16;fontFamily=Oxygen;fontSource=https%3A%2F%2Ffonts.googleapis.com%2Fcss%3Ffamily%3DOxygen;" vertex="1" parent="1">
          <mxGeometry x="120" y="200" width="240" height="40" as="geometry" />
        </mxCell>
        <mxCell id="lNvyaSm_dHnEnZLDwgfB-17" value="&lt;font data-font-src=&quot;https://fonts.googleapis.com/css?family=Oxygen&quot; face=&quot;Oxygen&quot; style=&quot;color: rgb(73, 80, 87);&quot;&gt;&lt;b&gt;Eth0/1&lt;/b&gt;&lt;/font&gt;" style="html=1;overflow=block;blockSpacing=1;whiteSpace=wrap;fontSize=4;spacing=2;strokeColor=#495057;strokeOpacity=100;fillOpacity=100;rounded=1;absoluteArcSize=1;arcSize=20;rotation=90;fillColor=#ffffff;strokeWidth=0.5;lucidId=FTfhXPljw2Sw;container=1;collapsible=0;align=center;verticalAlign=bottom;spacingTop=0;fontColor=#F8F9FA;" vertex="1" parent="1">
          <mxGeometry x="210" y="456" width="20" height="8" as="geometry" />
        </mxCell>
        <mxCell id="lNvyaSm_dHnEnZLDwgfB-23" value="&lt;font data-font-src=&quot;https://fonts.googleapis.com/css?family=Oxygen&quot; face=&quot;Oxygen&quot; style=&quot;color: rgb(73, 80, 87);&quot;&gt;&lt;b&gt;Eth1&lt;/b&gt;&lt;/font&gt;" style="html=1;overflow=block;blockSpacing=1;whiteSpace=wrap;fontSize=4;spacing=2;strokeColor=#495057;strokeOpacity=100;fillOpacity=100;rounded=1;absoluteArcSize=1;arcSize=20;rotation=-90;fillColor=#ffffff;strokeWidth=0.5;lucidId=FTfhXPljw2Sw;container=1;collapsible=0;align=center;verticalAlign=bottom;spacingTop=0;fontColor=#F8F9FA;" vertex="1" parent="1">
          <mxGeometry x="152" y="498" width="16" height="8" as="geometry" />
        </mxCell>
        <mxCell id="lNvyaSm_dHnEnZLDwgfB-24" value="&lt;font data-font-src=&quot;https://fonts.googleapis.com/css?family=Oxygen&quot; face=&quot;Oxygen&quot; style=&quot;color: rgb(73, 80, 87);&quot;&gt;&lt;b&gt;Eth0/2&lt;/b&gt;&lt;/font&gt;" style="html=1;overflow=block;blockSpacing=1;whiteSpace=wrap;fontSize=4;spacing=2;strokeColor=#495057;strokeOpacity=100;fillOpacity=100;rounded=1;absoluteArcSize=1;arcSize=20;rotation=-90;fillColor=#ffffff;strokeWidth=0.5;lucidId=FTfhXPljw2Sw;container=1;collapsible=0;align=center;verticalAlign=bottom;spacingTop=0;fontColor=#F8F9FA;" vertex="1" parent="1">
          <mxGeometry x="230" y="456" width="20" height="8" as="geometry" />
        </mxCell>
        <mxCell id="lNvyaSm_dHnEnZLDwgfB-25" value="&lt;font data-font-src=&quot;https://fonts.googleapis.com/css?family=Oxygen&quot; face=&quot;Oxygen&quot; style=&quot;color: rgb(73, 80, 87);&quot;&gt;&lt;b&gt;Eth1&lt;/b&gt;&lt;/font&gt;" style="html=1;overflow=block;blockSpacing=1;whiteSpace=wrap;fontSize=4;spacing=2;strokeColor=#495057;strokeOpacity=100;fillOpacity=100;rounded=1;absoluteArcSize=1;arcSize=20;rotation=-90;fillColor=#ffffff;strokeWidth=0.5;lucidId=FTfhXPljw2Sw;container=1;collapsible=0;align=center;verticalAlign=bottom;spacingTop=0;fontColor=#F8F9FA;" vertex="1" parent="1">
          <mxGeometry x="232" y="518" width="16" height="8" as="geometry" />
        </mxCell>
        <mxCell id="lNvyaSm_dHnEnZLDwgfB-26" value="&lt;font data-font-src=&quot;https://fonts.googleapis.com/css?family=Oxygen&quot; face=&quot;Oxygen&quot; style=&quot;color: rgb(73, 80, 87);&quot;&gt;&lt;b&gt;Eth0/3&lt;/b&gt;&lt;/font&gt;" style="html=1;overflow=block;blockSpacing=1;whiteSpace=wrap;fontSize=4;spacing=2;strokeColor=#495057;strokeOpacity=100;fillOpacity=100;rounded=1;absoluteArcSize=1;arcSize=20;rotation=90;fillColor=#ffffff;strokeWidth=0.5;lucidId=FTfhXPljw2Sw;container=1;collapsible=0;align=center;verticalAlign=bottom;spacingTop=0;fontColor=#F8F9FA;" vertex="1" parent="1">
          <mxGeometry x="250" y="456" width="20" height="8" as="geometry" />
        </mxCell>
        <mxCell id="lNvyaSm_dHnEnZLDwgfB-27" value="&lt;font data-font-src=&quot;https://fonts.googleapis.com/css?family=Oxygen&quot; face=&quot;Oxygen&quot; style=&quot;color: rgb(73, 80, 87);&quot;&gt;&lt;b&gt;Eth1&lt;/b&gt;&lt;/font&gt;" style="html=1;overflow=block;blockSpacing=1;whiteSpace=wrap;fontSize=4;spacing=2;strokeColor=#495057;strokeOpacity=100;fillOpacity=100;rounded=1;absoluteArcSize=1;arcSize=20;rotation=90;fillColor=#ffffff;strokeWidth=0.5;lucidId=FTfhXPljw2Sw;container=1;collapsible=0;align=center;verticalAlign=bottom;spacingTop=0;fontColor=#F8F9FA;" vertex="1" parent="1">
          <mxGeometry x="312" y="498" width="16" height="8" as="geometry" />
        </mxCell>
      </root>
    </mxGraphModel>
  </diagram>
  <diagram id="WEA-HxMSCuX0Czx8Rg_E" name="02 Trunks">
    <mxGraphModel dx="1018" dy="790" grid="0" gridSize="10" guides="1" tooltips="1" connect="1" arrows="1" fold="1" page="0" pageScale="1" pageWidth="1200" pageHeight="1920" math="0" shadow="0">
      <root>
        <mxCell id="0" />
        <mxCell id="1" parent="0" />
      </root>
    </mxGraphModel>
  </diagram>
  <diagram id="p9kTTOE0NV7MHxoq3Zmb" name="03 Router-on-a-stick">
    <mxGraphModel dx="1018" dy="790" grid="0" gridSize="10" guides="1" tooltips="1" connect="1" arrows="1" fold="1" page="0" pageScale="1" pageWidth="1200" pageHeight="1920" math="0" shadow="0">
      <root>
        <mxCell id="0" />
        <mxCell id="1" parent="0" />
      </root>
    </mxGraphModel>
  </diagram>
  <diagram id="qE_rJiDwGN7ubihFB6a2" name="04 L2-L3-Redundancy">
    <mxGraphModel dx="262" dy="790" grid="0" gridSize="10" guides="1" tooltips="1" connect="1" arrows="1" fold="1" page="0" pageScale="1" pageWidth="1200" pageHeight="1920" math="0" shadow="0">
      <root>
        <mxCell id="0" />
        <mxCell id="1" parent="0" />
      </root>
    </mxGraphModel>
  </diagram>
  <diagram id="1FsBM_BCWrvuE7_aNRaY" name="05 NAT &amp; Internet">
    <mxGraphModel dx="262" dy="790" grid="0" gridSize="10" guides="1" tooltips="1" connect="1" arrows="1" fold="1" page="0" pageScale="1" pageWidth="1200" pageHeight="1920" math="0" shadow="0">
      <root>
        <mxCell id="0" />
        <mxCell id="1" parent="0" />
      </root>
    </mxGraphModel>
  </diagram>
  <diagram id="TAdsnxs4JD3p9IdIMyXG" name="06 Static Routing">
    <mxGraphModel dx="262" dy="790" grid="0" gridSize="10" guides="1" tooltips="1" connect="1" arrows="1" fold="1" page="0" pageScale="1" pageWidth="1200" pageHeight="1920" math="0" shadow="0">
      <root>
        <mxCell id="0" />
        <mxCell id="1" parent="0" />
      </root>
    </mxGraphModel>
  </diagram>
  <diagram id="rWXUHfWWSpXaIJifpgZU" name="07 PAT &amp; Dynamic-Routing">
    <mxGraphModel dx="262" dy="790" grid="0" gridSize="10" guides="1" tooltips="1" connect="1" arrows="1" fold="1" page="0" pageScale="1" pageWidth="1200" pageHeight="1920" math="0" shadow="0">
      <root>
        <mxCell id="0" />
        <mxCell id="1" parent="0" />
      </root>
    </mxGraphModel>
  </diagram>
  <diagram id="6WVYALKntpShJjg_IZ71" name="08 STP, Summarization, &amp; DCHP">
    <mxGraphModel dx="262" dy="790" grid="0" gridSize="10" guides="1" tooltips="1" connect="1" arrows="1" fold="1" page="0" pageScale="1" pageWidth="1200" pageHeight="1920" math="0" shadow="0">
      <root>
        <mxCell id="0" />
        <mxCell id="1" parent="0" />
      </root>
    </mxGraphModel>
  </diagram>
  <diagram id="TW2iTZ3vw3no6r8xTEB4" name="09 Advanced OSPF, BGP, GRE">
    <mxGraphModel dx="1018" dy="790" grid="0" gridSize="10" guides="1" tooltips="1" connect="1" arrows="1" fold="1" page="0" pageScale="1" pageWidth="1200" pageHeight="1920" math="0" shadow="0">
      <root>
        <mxCell id="0" />
        <mxCell id="1" parent="0" />
      </root>
    </mxGraphModel>
  </diagram>
</mxfile>
